<svg width="24" height="24" viewBox="-1 -1 26 26" fill="none" xmlns="http://www.w3.org/2000/svg">
    <path fill="none" stroke-width="1" fill-rule="evenodd" clip-rule="evenodd" d="M13.3333 10.6667V0H24V10.6667H13.3333ZM16 8H21.3333V2.66667H16V8ZM0 24H10.6667V13.3333H0V24ZM2.66667 16H8V21.3333H2.66667V16ZM17.3333 13.3333H20V17.3333H24V20H20V24H17.3333V20H13.3333V17.3333H17.3333V13.3333ZM0 10.6667H10.6667V0H0V10.6667ZM2.66667 2.66667H8V8H2.66667V2.66667Z"></path>
    <mask id="mask0_3401_20760" style="mask-type:luminance" maskUnits="userSpaceOnUse" x="0" y="0" width="24" height="24">
    <path fill-rule="evenodd" clip-rule="evenodd" d="M13.3333 10.6667V0H24V10.6667H13.3333ZM16 8H21.3333V2.66667H16V8ZM0 24H10.6667V13.3333H0V24ZM2.66667 16H8V21.3333H2.66667V16ZM17.3333 13.3333H20V17.3333H24V20H20V24H17.3333V20H13.3333V17.3333H17.3333V13.3333ZM0 10.6667H10.6667V0H0V10.6667ZM2.66667 2.66667H8V8H2.66667V2.66667Z" fill="none"></path>
    </mask>
    <g mask="url(#mask0_3401_20760)">
    <rect x="-4" y="-4" width="32" height="32"></rect>
    </g>
    </svg>