<svg xmlns="http://www.w3.org/2000/svg" width="32" height="32" viewBox="0 0 32 32" fill="none">
    <path fill="none" d="M16 2.66675C8.63996 2.66675 2.66663 8.64008 2.66663 16.0001C2.66663 23.3601 8.63996 29.3334 16 29.3334C23.36 29.3334 29.3333 23.3601 29.3333 16.0001C29.3333 8.64008 23.36 2.66675 16 2.66675ZM25.9466 12.1601L22.24 13.6934C21.56 11.8801 20.1333 10.4401 18.3066 9.77341L19.84 6.06675C22.64 7.13342 24.8666 9.36008 25.9466 12.1601ZM16 20.0001C13.7866 20.0001 12 18.2134 12 16.0001C12 13.7867 13.7866 12.0001 16 12.0001C18.2133 12.0001 20 13.7867 20 16.0001C20 18.2134 18.2133 20.0001 16 20.0001ZM12.1733 6.05341L13.7333 9.76008C11.8933 10.4267 10.44 11.8801 9.75996 13.7201L6.05329 12.1734C7.13329 9.36008 9.35996 7.13341 12.1733 6.05341ZM6.05329 19.8267L9.75996 18.2934C10.44 20.1334 11.88 21.5734 13.72 22.2401L12.16 25.9467C9.35996 24.8667 7.13329 22.6401 6.05329 19.8267ZM19.84 25.9467L18.3066 22.2401C20.1333 21.5601 21.5733 20.1201 22.24 18.2801L25.9466 19.8401C24.8666 22.6401 22.64 24.8667 19.84 25.9467Z"></path>
    </svg>