<svg xmlns="http://www.w3.org/2000/svg" width="32" height="32" viewBox="0 0 32 32" fill="none">
    <path fill="none" d="M25.3333 18.6666V7.99992C25.3333 6.53325 24.1333 5.33325 22.6666 5.33325H3.99998C2.53331 5.33325 1.33331 6.53325 1.33331 7.99992V18.6666C1.33331 20.1333 2.53331 21.3333 3.99998 21.3333H22.6666C24.1333 21.3333 25.3333 20.1333 25.3333 18.6666ZM22.6666 18.6666H3.99998V7.99992H22.6666V18.6666ZM13.3333 9.33325C11.12 9.33325 9.33331 11.1199 9.33331 13.3333C9.33331 15.5466 11.12 17.3333 13.3333 17.3333C15.5466 17.3333 17.3333 15.5466 17.3333 13.3333C17.3333 11.1199 15.5466 9.33325 13.3333 9.33325ZM30.6666 9.33325V23.9999C30.6666 25.4666 29.4666 26.6666 28 26.6666H5.33331C5.33331 25.3333 5.33331 25.4666 5.33331 23.9999H28V9.33325C29.4666 9.33325 29.3333 9.33325 30.6666 9.33325Z"></path>
    </svg>