<svg xmlns="http://www.w3.org/2000/svg" width="32" height="32" viewBox="0 0 32 32" fill="none">
    <path fill="none" d="M16 15.9998C14.5333 15.9998 13.3333 14.7998 13.3333 13.3332C13.3333 11.8665 14.5333 10.6665 16 10.6665C17.4667 10.6665 18.6667 11.8665 18.6667 13.3332C18.6667 14.7998 17.4667 15.9998 16 15.9998ZM24 13.5998C24 8.75984 20.4667 5.33317 16 5.33317C11.5333 5.33317 8.00001 8.75984 8.00001 13.5998C8.00001 16.7198 10.6 20.8532 16 25.7865C21.4 20.8532 24 16.7198 24 13.5998ZM16 2.6665C21.6 2.6665 26.6667 6.95984 26.6667 13.5998C26.6667 18.0265 23.1067 23.2665 16 29.3332C8.89334 23.2665 5.33334 18.0265 5.33334 13.5998C5.33334 6.95984 10.4 2.6665 16 2.6665Z"></path>
    </svg>