<svg xmlns="http://www.w3.org/2000/svg" width="32" height="32" viewBox="0 0 32 32" fill="none">
    <path 
        fill="none" 
        stroke="currentColor" 
        stroke-width="1" 
        d="M18.6667 2.66675H7.99999C6.53333 2.66675 5.33333 3.86675 5.33333 5.33341V26.6667C5.33333 28.1334 6.53333 29.3334 7.99999 29.3334H24C25.4667 29.3334 26.6667 28.1334 26.6667 26.6667V10.6667L18.6667 2.66675ZM7.99999 26.6667V5.33341H17.3333V10.6667H24V26.6667H7.99999ZM14.6667 25.3334H17.3333V24.0001H18.6667C19.4 24.0001 20 23.4001 20 22.6667V18.6667C20 17.9334 19.4 17.3334 18.6667 17.3334H14.6667V16.0001H20V13.3334H17.3333V12.0001H14.6667V13.3334H13.3333C12.6 13.3334 12 13.9334 12 14.6667V18.6667C12 19.4001 12.6 20.0001 13.3333 20.0001H17.3333V21.3334H12V24.0001H14.6667V25.3334Z">
    </path>
</svg>
