<svg xmlns="http://www.w3.org/2000/svg" width="32" height="32" viewBox="0 0 32 32" fill="none"><path fill="none" d="M12 14.667A1.333 1.333 0 1 0 12 12a1.333 1.333 0 0 0 0 2.667Zm8 0A1.333 1.333 0 1 0 20 12a1.333 1.333 0 0 0 0 2.667Z"></path><path fill="none" d="M7.707 20.667h.586c.574 0 1.04-.48 1.04-1.08V18h13.334v1.587c0 .6.453 1.08 1.04 1.08h.586c.574 0 1.04-.48 1.04-1.08V10.92s-1.786-5.373-2.08-6.253A2.206 2.206 0 0 0 23 4.133c-.027-.026-.04-.053-.067-.093a1.68 1.68 0 0 0-1.226-.707H10.293s-.72.014-1.226.72c-.027.027-.04.054-.067.08-.093.147-.187.32-.253.534-.294.88-2.08 6.253-2.08 6.253v8.667c0 .6.466 1.08 1.04 1.08ZM11.107 6h9.786l.307.92.573 1.747H10.227L11.107 6Zm-1.774 5.333h13.334v4H9.333v-4Zm-4 10.68v2.654h9.334v4h2.666v-4h9.334v-2.654H5.333Z"></path></svg>