<svg xmlns="http://www.w3.org/2000/svg" width="32" height="32" viewBox="0 0 32 32" fill="none">
            <path fill="none" d="M9.33332 11.3335H2.66666V8.66683H9.33332V11.3335ZM9.33332 15.3335H2.66666V18.0002H9.33332V15.3335ZM27.4533 24.6668L22.3467 19.5602C21.28 20.2535 20.0267 20.6668 18.6667 20.6668C14.9867 20.6668 12 17.6802 12 14.0002C12 10.3202 14.9867 7.3335 18.6667 7.3335C22.3467 7.3335 25.3333 10.3202 25.3333 14.0002C25.3333 15.3602 24.92 16.6135 24.2267 17.6668L29.3333 22.7868L27.4533 24.6668ZM22.6667 14.0002C22.6667 11.8002 20.8667 10.0002 18.6667 10.0002C16.4667 10.0002 14.6667 11.8002 14.6667 14.0002C14.6667 16.2002 16.4667 18.0002 18.6667 18.0002C20.8667 18.0002 22.6667 16.2002 22.6667 14.0002ZM2.66666 24.6668H16V22.0002H2.66666V24.6668Z"></path>
        </svg>