<svg xmlns="http://www.w3.org/2000/svg" viewBox="3 10 393 65.947"><path fill-rule="evenodd" d="M46.625 12.105c-2.245.222-5.777.558-7.849.747-7.938.722-7.377.079-5.642 6.46 1.789 6.576 1.448 5.982 3.69 6.417 1.073.208 2.587.506 3.364.662.777.156 4.168.783 7.536 1.395 7.697 1.397 7.535 1.359 7.535 1.764 0 .238-1.627.281-5.416.144-12.58-.454-22.909-1.971-28.414-4.172-1.902-.761-2.692-1.518-1.256-1.203 3.978.87 10.137 1.458 8.555.815-.345-.14-1.73-.509-3.077-.82-2.869-.662-3.134-.923-1.96-1.933 1.234-1.061.841-1.186-1.748-.551-5.358 1.313-11.037 5.8-7.341 5.8 2.913 0 6.112 3.691 7.246 8.36 1.485 6.119 7.238 6.092 17.633-.083 5.071-3.012 8.539-3.647 13.894-2.546 1.295.267 2.871.573 3.501.682 1.104.189 1.152.252 1.282 1.68.181 1.993.187 1.99-1.876 1.145-6.055-2.478-10.321-1.803-15.551 2.462-6.179 5.039-11.212 6.619-15.718 4.933-3.269-1.223-4.071-2.46-5.09-7.842-1.827-9.652-9.208-11.34-13.207-3.019-2.124 4.421-2.111 6.526.061 9.848 1.522 2.326 1.559 2.242 1.551-3.611-.01-6.697.762-8.91 2.455-7.04.635.702.666 1.426.082 1.911-.593.492-.922 2.414-.528 3.09.282.484.32.463.328-.182.007-.518.166-.699.55-.625.699.134 1.353 2.348.986 3.337-.399 1.075-.311 2.332.211 3.023.489.646.587 1.977.265 3.59-.217 1.081-.852 1.284-1.349.431-.463-.794-.459.426.006 1.759.452 1.299 1.146 1.254 1.716-.11.601-1.44.935-1.414 5.223.407 3.988 1.694 7.081 3.425 9.891 5.538 1.983 1.49 7.315 6.895 7.315 7.415 0 .163.118.297.262.297.144 0 .266-2.084.272-4.631.023-11.311 4.014-16.977 8.022-11.387 1.017 1.42 1.221 2.609.314 1.829-3.068-2.635-5.407 1.805-5.408 10.265-.001 10.608 3.928 18.407 7.342 14.575.573-.643 1.035-.9 1.38-.767 2.106.808 7.62 1.145 17.152 1.049l10.027-.101.269 1.099c.451 1.843.512 1.94 1.033 1.648.266-.148.94-.969 1.498-1.822l1.014-1.553 3.294-.376c6.44-.735 8.99-1.08 12.512-1.691 4.052-.703 4.163-.67 4.755 1.445.607 2.17 1.778 1.417 2.808-1.805.407-1.273.366-1.253 4.882-2.3 8.442-1.955 17.328-5.991 17.86-8.111.713-2.842-1.568-3.595-5.117-1.689-4.002 2.149-8.299 3.704-14.149 5.12-3.33.806-3.305.81-3.897-.605-.52-1.246-2.306-3.331-2.852-3.331-.275 0-.465.864-.617 2.799l-.219 2.8-1.47.335c-2.726.621-12.125 1.881-14.745 1.977l-2.6.095-.765-1.867c-1.711-4.176-3.113-4.313-3.444-.337-.296 3.551.327 3.363-11.313 3.414-12.513.054-15.964-.482-15.265-2.373.237-.641.469-.677 4.931-.759 17.96-.33 23.202-8.52 13.184-20.597-2.082-2.51-2.111-2.65-.529-2.499 4.699.448 7.75-5.715 5.236-10.576-1.542-2.982-5.577-.5-6.968 4.286-.552 1.899-1.072 1.993-1.48.268-.421-1.781.02-3.776 1.232-5.578 1.331-1.978 1.329-1.98-.914-1.068-2.229.906-2.194.379.066-.985 6.96-4.2 12.91 1.348 9.899 9.229-1.634 4.274-.085 18.139 2.026 18.139.303 0 .421-1.889.511-8.163.158-11.032.758-14.155 3.189-16.611 1.484-1.5 4.464-2.586 4.947-1.804.258.417 1.098 14.891 1.332 22.94.116 4 .312 7.336.435 7.412.675.417 1.023-4.572 1.207-17.275l.195-13.501 1.581-.092c1.878-.11 3.349.715 4.368 2.448.608 1.036.65 1.672.743 11.224.058 6.019.217 10.125.392 10.125.162 0 .295-.035.295-.078s.202-1.138.449-2.434c.247-1.295.61-4.397.807-6.894.428-5.434.364-5.298 1.916-4.069 1.495 1.184 3.972 2.172 5.447 2.172 1.593 0 1.565.291-.287 2.951-3.986 5.727-4 9.049-.048 11.619 5.796 3.77 13.999 2.076 16.703-3.449 2.564-5.242-1.689-13.721-8.605-17.152-1.988-.986-2.093-1.095-2.314-2.398-.918-5.413-5.416-4.171-7.373 2.036-.625 1.983-1.236 1.927-1.546-.142-.284-1.892.278-3.975 1.475-5.474 1.61-2.016-.641-1.471-3.765.911-1.777 1.354-1.716 1.374-2.524-.843-1.28-3.51-3.74-5.164-8.448-5.679-2.738-.3-4.588-.569-8.057-1.175-1.036-.181-2.629-.456-3.539-.611-2.162-.369-2.019-.115-2.74-4.856l-.628-4.126-1.099-.221c-4.497-.905-17.506-1.311-23.391-.73m5.467 1.658c.407.761 1.15 5.941.89 6.202-.112.111-1.659.316-3.437.454-4.159.324-7.59.825-10.901 1.593-3.15.731-2.875.956-4.064-3.331-1.07-3.853-.977-4.233 1.037-4.243.873-.005 2.825-.162 11.322-.912 4.593-.406 4.814-.396 5.153.237m12.429.085c5.879.431 5.631.272 6.055 3.891.41 3.497.417 3.49-2.826 3.042-4.777-.66-9.764-1.065-10.898-.885-1.647.262-1.81.012-2.058-3.156-.288-3.669-.293-3.662 2.466-3.44 1.231.099 4.498.346 7.261.548m75.348 2.919c-7.826 1.481-10.912 7.992-9.867 20.815.791 9.697 4.562 13.583 13.192 13.592 10.007.01 14.788-7.688 13.203-21.26-1.246-10.673-6.695-15.007-16.528-13.147m88.074-.009c-7.76 1.413-11.522 9.496-10.1 21.704 1.225 10.522 7.781 14.914 18.138 12.151 1.891-.505 2.317-.531 2.807-.172.837.612 8.399.599 8.908-.016.2-.24.489-1.194.642-2.119.473-2.864.373-2.78 3.333-2.78 2.994 0 3.062.054 3.595 2.865.479 2.524.429 2.502 5.298 2.402l4.271-.087.11-.782c.061-.431-.045-1.526-.235-2.434-.19-.907-.501-2.463-.69-3.455-.189-.993-.469-2.442-.622-3.219-.153-.777-.499-2.684-.769-4.238a273.08 273.08 0 0 0-.767-4.239c-.152-.777-.44-2.331-.639-3.454-.2-1.122-.487-2.676-.637-3.453-.15-.777-.42-2.19-.598-3.14l-.666-3.532-.34-1.806h-13.786l-.336.864c-.185.475-.449 1.57-.586 2.433-.259 1.63-1.663 9.389-2.245 12.402-.184.95-.445 2.363-.58 3.14-1.126 6.457-1.888 10.437-2.226 11.625l-.399 1.405-.243-1.413c-1.076-6.263-.786-5.839-3.547-5.198-6.114 1.418-7.248.168-7.248-7.989 0-6.029.359-7.254 2.417-8.26 1.233-.603 1.326-.592 5.41.6 1.758.513 1.939.395 2.225-1.445.094-.605.3-1.806.457-2.669.872-4.772.874-4.771-4.7-5.683-3.059-.501-2.943-.501-5.652-.008m72.528.005c-4.484.997-6.923 3.616-7.867 8.446-1.042 5.332 1.448 9.583 7.444 12.709 6.562 3.421 4.64 6.104-2.959 4.132-3.327-.863-3.271-.927-3.458 3.915l-.151 3.924.748.173 2.789.64c9.452 2.16 15.934-.888 16.907-7.951.826-5.993-1.14-9.411-7.331-12.745-6.407-3.451-4.97-5.676 2.64-4.089 3.037.634 2.973.685 3.432-2.726.826-6.13.875-5.533-.482-5.884-3.061-.79-9.301-1.08-11.712-.544m-140.648.799c-.593 1.108-.434 32.206.168 32.808.656.657 16.495.75 17.008.101.17-.216.402-1.979.515-3.917.241-4.161.653-3.814-4.673-3.933l-3.453-.078-.082-12.794-.082-12.795h-4.538c-4.166 0-4.565.05-4.863.608m19.466 0c-.69 1.289-.422 32.599.282 32.976 1.924 1.03 15.019.205 17.637-1.111 9.53-4.788 10.033-26.829.706-30.955-3.786-1.675-17.848-2.362-18.625-.91m88.424-.398c-.115.115-.209 7.671-.209 16.791v16.582l.706.176c.389.096 2.473.134 4.631.084l3.925-.091.086-5.887c.069-4.817.165-5.887.528-5.887.243 0 .508.248.587.55 1.767 6.711 2.933 10.604 3.279 10.95.328.328 1.562.431 5.129.431 5.143 0 5.389-.094 4.736-1.811-.179-.471-.98-2.977-1.779-5.567-.8-2.59-1.588-5.034-1.751-5.431-.476-1.157-.351-1.787.518-2.599 1.81-1.691 2.629-4.078 2.631-7.669.003-6.102-1.957-9.132-6.728-10.402-1.665-.444-15.873-.636-16.289-.22m60.605-.008c-.459.459-.251 32.975.213 33.36.305.253 2.866.333 8.713.274l8.282-.084.343-3.453c.466-4.7.628-4.515-4.038-4.622l-3.84-.088-.157-12.716-.157-12.716-4.571-.086c-2.514-.048-4.669.011-4.788.131m17.242.501c-.109.391-.289 2.3-.4 4.243l-.201 3.532h3.02c3.979 0 3.669-1.109 3.669 13.16v11.945l.707.176c.388.096 2.472.134 4.631.084l3.925-.091.157-12.244c.086-6.735.271-12.422.41-12.638.172-.265 1.158-.392 3.047-.392h2.793l.227-1.178c.124-.647.237-2.519.25-4.16l.023-2.983-11.03-.082-11.03-.082-.198.71m24.175-.206c-.391 1.019-.213 32.637.187 33.036 1.187 1.187 15.296.261 18.144-1.192 9.305-4.747 9.36-27.069.075-30.988-3.342-1.411-17.932-2.089-18.406-.856m-224.44 9.02c2.033 2.033 2.186 13.596.207 15.601-2.231 2.259-5.043.747-5.664-3.044-1.577-9.628 1.441-16.573 5.457-12.557m46.699-.407c1.722.652 2.65 3.428 2.662 7.966.014 5.427-.91 7.673-3.436 8.353-2.499.673-2.356 1.141-2.45-7.969-.1-9.68-.124-9.619 3.224-8.35m87.676.509c1.744 1.919.49 6.278-1.733 6.022l-.857-.099-.09-3.271c-.111-4.039.695-4.836 2.68-2.652m103.135-.313c1.869.955 2.847 5.881 2.156 10.867-.563 4.069-1.466 5.23-4.161 5.354l-1.365.062-.084-8.298c-.097-9.631-.038-9.769 3.454-7.985m-130.081 7.109c.905 5.567.961 5.25-.938 5.25h-1.589l.191-1.492c.533-4.159 1.324-8.125 1.573-7.877.061.062.405 1.915.763 4.119M44.379 51.57c1.538 2.042 2.11 4.682 1.225 5.66-1.013 1.12-.756 3.968.486 5.383.946 1.077 1.019 1.306.846 2.643-1.102 8.486-4.742 7.722-6.32-1.328-1.444-8.285.938-16.109 3.763-12.358m91.52 6.793c-6.242 3.959-.346 14.232 5.961 10.386 1.927-1.174 1.038-1.574-2.368-1.065-4.172.624-6.322-4.932-2.985-7.716 1.242-1.037.943-1.005 5.221-.564 1.295.133 1.364-.557.132-1.309-1.624-.99-4.157-.876-5.961.268m9.541 4.981.086 5.887 1.022.098c1.224.118 1.673-.615.9-1.469-.419-.463-.509-1.348-.509-4.986 0-4.871-.099-5.417-.983-5.417-.574 0-.597.266-.516 5.887m55.056-5.303c-6.466 3.796-1.588 13.779 5.323 10.892 1.537-.642 1.591-1.918.068-1.604-3.457.713-4.545.442-6.028-1.503-2.909-3.814.875-7.681 6.185-6.32.737.189.863.126.863-.435 0-1.499-4.406-2.207-6.411-1.03m47.368-.243c-.341.552.298.94 1.936 1.174l1.534.219.077 4.392c.086 4.958.212 5.805.865 5.805s.78-.847.866-5.809l.076-4.395 1.413-.165c1.635-.192 2.198-.476 2.198-1.11 0-.571-8.615-.678-8.965-.111m40.873.14c-.379.986-.221 10.672.18 11.073.717.717 2.135.468 2.135-.375 0-.413-.209-.831-.463-.929-.376-.144-.479-1.112-.55-5.131-.074-4.279-.156-4.968-.596-5.052-.281-.054-.598.132-.706.414m37.646-.182c-.102.165.462 2.037 1.253 4.16 3.587 9.626 3.225 9.598 6.572.516 1.587-4.305 1.71-5.059.806-4.924-.589.087-.926.676-1.952 3.403-2.159 5.742-1.938 5.648-3.493 1.485-.661-1.767-1.349-3.601-1.53-4.076-.324-.85-1.278-1.175-1.656-.564m22.197 5.588.086 5.887 1.022.098c1.224.118 1.672-.615.9-1.469-.419-.463-.51-1.348-.51-4.986 0-4.871-.099-5.417-.982-5.417-.574 0-.597.266-.516 5.887m-169.616-4.056c0 .798.335 1.054.834.639.628-.52.51-1.214-.206-1.214-.4 0-.628.209-.628.575m80.515-.231c-.383.62.627 1.346 1.093.784.216-.26.301-.62.19-.801-.265-.429-1.013-.419-1.283.017m-35.398 1.739c-.114.114-.952.222-1.862.239l-1.654.033-.088 3.8c-.07 3.056.004 3.875.379 4.187.813.674 1.122.048 1.123-2.276.002-3.514.819-4.531 3.482-4.333.889.067 1.633-.573 1.287-1.108-.262-.405-2.375-.834-2.667-.542m-72.52.785c-3.989 2.975-.125 9.791 4.229 7.461.485-.26.838-.244 1.413.064 2.158 1.155 1.843-5.741-.338-7.405-1.365-1.04-3.99-1.1-5.304-.12m9.854.24c-2.177 2.033-1.198 3.341 3.185 4.258 1.092.229 1.115 1.01.044 1.498-.697.317-.998.269-2.024-.321-1.896-1.091-2.629-.862-1.857.579.756 1.413 3.307 1.964 5.011 1.084 2.876-1.488 2.183-3.809-1.358-4.544-1.932-.401-2.347-.739-1.767-1.437.56-.676 2.192-.562 3.013.21.768.721 1.685.611 1.685-.202 0-2.014-4.14-2.799-5.932-1.125m8.782.056c-1.976 1.975-.907 3.383 3.194 4.209.914.184 1.111.731.487 1.355-.563.563-1.636.456-2.535-.251-1.782-1.402-2.734-.378-1.068 1.149 2.17 1.988 5.606.988 5.802-1.689.106-1.444-.186-1.732-2.137-2.111-2.184-.425-2.842-.812-2.493-1.466.422-.788 2.092-.769 3.121.035 1.057.827 1.57.783 1.57-.134 0-2.133-4.141-2.898-5.941-1.097m8.662-.757c-.451.451-.23 7.546.248 7.942.911.756 1.113.015 1.113-4.088 0-4.086-.295-4.92-1.361-3.854m5.355.714c-2.92 2.563-1.473 7.035 2.419 7.474 1.628.183 3.32-.58 3.32-1.498 0-.669-1.355-.909-1.727-.306-.782 1.265-3.925-.609-3.925-2.34 0-2.343 1.291-2.96 4.867-2.324 1.007.179 1.007-1.1 0-1.559-1.576-.718-3.788-.471-4.954.553m26.362.139c-3.364 3.364.702 9.299 4.849 7.079.447-.239.746-.238 1.039.005 1.339 1.112 2.082-3.159.999-5.749-1.107-2.65-4.847-3.375-6.887-1.335m18.791-.088c-1.955 1.717-1.335 3.043 1.808 3.862 2.404.626 2.572.755 1.921 1.474-.697.771-1.722.759-2.726-.031-1.66-1.306-2.704-.447-1.239 1.018 1.548 1.548 3.78 1.612 5.241.151 1.902-1.902 1.224-3.351-1.868-3.993-1.793-.372-2.536-1.07-1.702-1.599.744-.47 2.042-.317 2.879.341 1.596 1.256 2.338.178.88-1.28-1.346-1.346-3.625-1.321-5.194.057m30.043 3.186c.083 3.921.124 4.16.716 4.16s.633-.239.715-4.16l.088-4.16H259.322l.088 4.16m4.153-3.882c-.213.213-.168 7.134.05 7.702.646 1.684 1.379.213 1.379-2.766 0-5.362 3.739-5.087 4.021.295.226 4.293 1.631 3.864 1.631-.497 0-4.782 3.387-5.04 3.666-.279.237 4.054 1.08 5.336 1.531 2.329.785-5.235-1.741-8.379-5.267-6.556-.898.465-1.051.465-1.827.007-.78-.461-4.777-.643-5.184-.235m15.742.681c-3.57 3.135.87 9.873 4.673 7.092 1.049-.766.396-1.477-1.16-1.264-1.057.145-1.513.053-2.102-.425-1.247-1.009-.593-1.339 2.656-1.339 3.466 0 3.882-.422 2.699-2.741-1.294-2.538-4.637-3.191-6.766-1.323m15.388-.002c-3.727 3.272.7 9.997 4.67 7.094 1.031-.754.395-1.502-1.077-1.267-1.371.219-2.839-.446-2.839-1.286 0-.357.647-.471 3.062-.542 2.944-.086 3.065-.118 3.165-.828.496-3.499-4.186-5.625-6.981-3.171m9.671.11c-1.767 1.767-1.142 3.015 1.899 3.791 2.284.583 2.759.979 1.919 1.599-.82.605-1.395.565-2.617-.179-2.126-1.297-2.807.085-.73 1.482 2.386 1.604 5.683.306 5.683-2.238 0-1.002-.91-1.62-3.062-2.082-1.814-.388-2.206-.727-1.636-1.413.558-.673 2.299-.573 2.971.17.681.752 1.363.811 1.621.139.827-2.156-4.123-3.194-6.048-1.269m9.013-.157c-2.176 2.033-1.198 3.341 3.185 4.258.915.192 1.11.739.487 1.362-.563.563-1.636.456-2.535-.251-1.435-1.129-2.76-.606-1.72.679 1.913 2.363 6.199 1.73 6.459-.954.14-1.446-.571-2.093-2.774-2.527-2.015-.396-2.458-.74-1.868-1.45.55-.663 2.072-.561 3.111.207.974.72 1.587.585 1.587-.348 0-1.891-4.211-2.583-5.932-.976m25.939-.24c-3.989 2.975-.125 9.791 4.229 7.461.485-.26.838-.244 1.413.064 2.158 1.155 1.843-5.741-.338-7.405-1.364-1.04-3.99-1.1-5.304-.12m14.093-.174c-.739 1.924.109 5.705 1.56 6.96 1.273 1.102 3.668 1.442 4.474.636.303-.303.527-.295 1.06.037 1.292.807 2.174-4.195 1.309-7.423-.46-1.715-1.372-.821-1.372 1.344 0 3.236-.975 4.873-2.884 4.847-1.675-.023-2.768-1.998-2.768-5.004 0-1.918-.849-2.778-1.379-1.397m11.641.566c-2.842 2.842-.868 7.415 3.201 7.415 1.275 0 2.374-.705 2.137-1.371-.072-.203-.652-.321-1.348-.275-1.275.084-2.949-.429-2.949-.904 0-.152-.001-.382-.003-.511-.001-.13 1.376-.307 3.061-.393 2.923-.15 3.069-.191 3.169-.893.49-3.465-4.686-5.65-7.268-3.068m-209.105 1.19c1.076 1.011 1.023 3.121-.1 4.004-2.185 1.719-5.06-.345-4.183-3.003.592-1.793 2.873-2.326 4.283-1.001m59.153-.28c1.44 1.106 1.568 2.76.311 4.017-2.59 2.59-6.252-1.079-3.754-3.761.695-.745 2.619-.889 3.443-.256m68.786.117c1.151 1.041.73 1.364-1.78 1.364-2.486 0-2.774-.209-1.727-1.256.778-.778 2.701-.837 3.507-.108m15.261-.031c1.391.974.891 1.395-1.657 1.395-1.842 0-2.355-.098-2.355-.453 0-.668 1.256-1.431 2.355-1.431.528 0 1.273.22 1.657.489m44.555.194c1.076 1.011 1.023 3.121-.1 4.004-2.185 1.719-5.06-.345-4.182-3.003.591-1.793 2.872-2.326 4.282-1.001m26.159-.055c1.046 1.047.759 1.256-1.727 1.256-2.484 0-2.81-.232-1.835-1.309.721-.798 2.741-.768 3.562.053m-131.476 3.976c-.552.223-.488 1.364.115 2.03.467.516.465.602-.02 1.088-.762.761-.128 1.319.884.778 2.409-1.289 1.502-4.897-.979-3.896"/></svg>