<svg version="1.2" xmlns="http://www.w3.org/2000/svg" viewBox="0 0 66 84" width="66" height="84">
	<title>noun-menu-31619</title>
	<style>
		.s0 { fill: #415658 } 
	</style>
	<g>
		<g>
			<path fill-rule="evenodd" class="s0" d="m38.9 75.6v-66.8c0-3.3-2.6-5.9-5.9-5.9-3.3 0-5.9 2.6-5.9 5.9v66.8c0 3.3 2.6 5.9 5.9 5.9 3.3 0 5.9-2.6 5.9-5.9zm-23.6 0v-66.8c0-3.3-2.6-5.9-5.9-5.9-3.2 0-5.9 2.6-5.9 5.9v66.8c0 3.3 2.7 5.9 5.9 5.9 3.3 0 5.9-2.6 5.9-5.9zm35.4-66.8v66.8c0 3.3 2.6 5.9 5.9 5.9 3.2 0 5.9-2.6 5.9-5.9v-66.8c0-3.3-2.7-5.9-5.9-5.9-3.3 0-5.9 2.6-5.9 5.9z"/>
		</g>
	</g>
</svg>