<svg xmlns="http://www.w3.org/2000/svg" overflow="visible" viewBox="20 0 240.46 240.98"><path stroke-width=".129" d="m50.494 55.244 2.438-3.26 9.422 3.323-5.852-8.098 2.358-3.154 13.96 7.897-1.958 2.62-9.802-5.589 6.87 9.51-.936 1.252-11.192-3.89 8.253 7.82-1.988 2.659zm17.971-21.122 8.077-7.016 2.066 2.378-5.488 4.767 2.106 2.424 5.488-4.767 2.034 2.342-5.487 4.767 2.161 2.488 5.488-4.767 2.066 2.378-8.076 7.016zm38.948-24.469 3.215-1.158 5.391 14.968-3.214 1.158z"/><path d="M78.947 279.03c.158-.778.085-1.474-.228-2.07-.31-.596-.827-.976-1.511-1.115a2.33 2.33 0 0 0-1.025.017h-.001a1.88 1.88 0 0 0-.845.447h-.001c-.223.216-.44.551-.665 1.01l-.646 1.32c-.165.34-.337.525-.477.583h-.001a.831.831 0 0 1-.504.052c-.232-.048-.393-.181-.514-.442-.116-.25-.14-.595-.049-1.044.1-.494.266-.853.482-1.084.216-.23.48-.343.825-.346l.14-.001-.017-1.617-.146.01c-.707.05-1.293.333-1.728.839-.43.503-.72 1.13-.871 1.87-.179.88-.116 1.653.2 2.305.32.66.874 1.078 1.623 1.23.47.096.935.047 1.377-.145.47-.202.867-.68 1.215-1.407l.562-1.176c.147-.309.304-.521.459-.64a.538.538 0 0 1 .47-.12.662.662 0 0 1 .49.38c.107.214.133.511.053.901-.068.335-.186.583-.348.756a1.015 1.015 0 0 1-.635.312l-.126.016.067 1.58.141-.01c.565-.035 1.058-.294 1.452-.756.39-.455.651-1.01.782-1.655z" color="#000" style="font-feature-settings:normal;font-variant-alternates:normal;font-variant-caps:normal;font-variant-east-asian:normal;font-variant-ligatures:normal;font-variant-numeric:normal;font-variant-position:normal;font-variation-settings:normal;inline-size:0;isolation:auto;mix-blend-mode:normal;shape-margin:0;shape-padding:0;text-decoration-color:#000;text-decoration-line:none;text-decoration-style:solid;text-indent:0;text-orientation:mixed;text-transform:none;white-space:normal" transform="translate(108.852 -417.159) scale(2.004)"/><path d="m80.295 217.848 8.978-13.42 4.348 2.909q2.472 1.653 3.087 2.357.952 1.074 1.05 2.61.105 1.528-.967 3.13-.827 1.236-1.839 1.778t-2.032.562q-1.005.016-1.823-.306-1.1-.457-2.94-1.687l-1.766-1.182-3.386 5.062zm10.168-9.337-2.547 3.808 1.483.992q1.602 1.072 2.283 1.223.68.15 1.283-.096.611-.24 1.01-.835.49-.733.378-1.496-.112-.764-.692-1.324-.424-.416-1.888-1.396zM40.574 72.619l1.206-2.524 18.084 1.057-1.564 3.273-3.563-.188-2.772 5.796 2.406 2.609-1.56 3.26zm5.561 1.101 3.617 3.896 1.713-3.584z"/><path d="m94.15 26.767 3.12-1.77c1.742-.98 3.285 1.295 3.517 1.609.513.694 1.457 2.181 1.946 2.527l2.798-1.572c-.456-.672-1.022-1.41-1.434-1.977-1.367-1.874-2.18-3.395-4.448-3.518 1.212-1.49 1.138-2.929.18-4.618-.625-1.101-1.576-1.892-2.628-2.198-.992-.29-2.038-.099-3.215.57l-7.422 4.21 7.851 13.838 2.848-1.615zm-1.346-2.373-2.046-3.607 3.363-1.908c.817-.463 1.182-.57 1.705-.49.503.09.943.468 1.309 1.114.377.664.508 1.293.328 1.771-.172.449-.48.749-1.295 1.212z" aria-label="R"/><path d="M10.371 209.97a4.27 4.27 0 0 0-1.974.884h-.001a3.898 3.898 0 0 0-1.234 1.661v.001l-.003.01v.005c-.237.64-.294 1.333-.168 2.073.196 1.142.737 2.03 1.604 2.644l.002.008.014.01c.881.61 1.922.813 3.095.612.635-.109 1.186-.31 1.652-.604h.001c.468-.3.93-.764 1.39-1.391l.072-.1-1.319-.962-.072.099c-.33.458-.648.787-.942.985a2.66 2.66 0 0 1-1.033.396c-.46.079-.89.047-1.3-.095a2.193 2.193 0 0 1-1.005-.694 2.484 2.484 0 0 1-.517-1.182c-.115-.67.017-1.26.4-1.795.386-.535.906-.854 1.585-.97.803-.138 1.576.07 2.344.637l.098.072.967-1.286-.09-.074a4.386 4.386 0 0 0-1.693-.86 4.394 4.394 0 0 0-1.832-.082l-.001-.009z" color="#000" style="font-feature-settings:normal;font-variant-alternates:normal;font-variant-caps:normal;font-variant-east-asian:normal;font-variant-ligatures:normal;font-variant-numeric:normal;font-variant-position:normal;font-variation-settings:normal;inline-size:0;isolation:auto;mix-blend-mode:normal;shape-margin:0;shape-padding:0;text-decoration-color:#000;text-decoration-line:none;text-decoration-style:solid;text-indent:0;text-orientation:mixed;text-transform:none;white-space:normal" transform="translate(108.852 -417.159) scale(2.004)"/><path d="m150.525 1.998 2.653.055 6.16 16.043-3.44-.072-1.23-3.153-6.094-.128-1.314 3.1-3.428-.072zm1.224 5.237-1.952 4.65 3.768.078zm13.993 11.737 3.427-15.537 3.052.674 4.07 11.778 2.29-10.375 2.914.643-3.428 15.536-3.148-.694-4.028-11.514-2.235 10.132zm44.705-.442 3.414 2.218-2.694 9.621 7.694-6.373 3.303 2.145-6.96 14.451-2.743-1.782 4.93-10.149-9.035 7.482-1.311-.851 3.143-11.425-7.259 8.752-2.784-1.809z"/><path fill-rule="evenodd" d="M60.944 226.69a4.04 4.04 0 0 0-4.029 4.028 4.04 4.04 0 0 0 4.029 4.029 4.04 4.04 0 0 0 4.028-4.029 4.04 4.04 0 0 0-4.028-4.028zm0 1.653c1.322 0 2.375 1.053 2.375 2.375s-1.053 2.376-2.375 2.376-2.375-1.054-2.375-2.376 1.053-2.375 2.375-2.375z" color="#000" style="font-feature-settings:normal;font-variant-alternates:normal;font-variant-caps:normal;font-variant-east-asian:normal;font-variant-ligatures:normal;font-variant-numeric:normal;font-variant-position:normal;font-variation-settings:normal;inline-size:0;isolation:auto;mix-blend-mode:normal;paint-order:markers stroke fill;shape-margin:0;shape-padding:0;text-decoration-color:#000;text-decoration-line:none;text-decoration-style:solid;text-indent:0;text-orientation:mixed;text-transform:none;white-space:normal" transform="translate(108.852 -417.159) scale(2.004)"/><path d="m238.046 67.789 11.414-6.667-2.381-4.077 2.324-1.357 6.377 10.917-2.324 1.358-2.376-4.067-11.414 6.667z"/><path fill-rule="evenodd" d="M73.28 247.75a4.04 4.04 0 0 0-4.029 4.028 4.041 4.041 0 0 0 4.029 4.029 4.04 4.04 0 0 0 4.028-4.029 4.04 4.04 0 0 0-4.028-4.028zm0 1.653c1.322 0 2.375 1.053 2.375 2.375s-1.053 2.376-2.375 2.376-2.375-1.054-2.375-2.376 1.053-2.375 2.375-2.375z" color="#000" style="font-feature-settings:normal;font-variant-alternates:normal;font-variant-caps:normal;font-variant-east-asian:normal;font-variant-ligatures:normal;font-variant-numeric:normal;font-variant-position:normal;font-variation-settings:normal;inline-size:0;isolation:auto;mix-blend-mode:normal;paint-order:markers stroke fill;shape-margin:0;shape-padding:0;text-decoration-color:#000;text-decoration-line:none;text-decoration-style:solid;text-indent:0;text-orientation:mixed;text-transform:none;white-space:normal" transform="translate(108.852 -417.159) scale(2.004)"/><path d="m258.878 112.336.193 3.582c.1 1.995-2.625 2.362-3.009 2.43-.85.149-2.602.331-3.13.614l.159 3.206c.806-.108 1.719-.285 2.41-.402 2.287-.388 4.01-.437 5.132-2.413.793 1.75 2.114 2.325 4.053 2.22 1.264-.067 2.396-.565 3.14-1.37.702-.76.996-1.78.924-3.132l-.46-8.521-15.887.856.176 3.269zm2.724-.147 4.14-.223.209 3.861c.05.937-.017 1.313-.322 1.744-.306.41-.84.636-1.58.676-.763.04-1.384-.123-1.732-.497-.325-.354-.457-.763-.507-1.7z" aria-label="R"/><path d="M158.641 48.53c-10.819 0-19.256 4.876-26.308 11.536l-43.675 41.248h-70.07c-7.146.347-14.318.65-16.442 9.179-1.032 6.891 3.663 10.107 9.222 13.797 10.711 5.242 25.248 9.678 53.186 2.145 6.84-1.845 16.475-7.462 28.457-18.017h14.838a893.03 893.03 0 0 1-13.342 15.228c-1.75 1.95-2.154 5.862.715 5.862h14.583c2.859 0 6.684-2.083 10.722-7.005l11.556-14.085h14.433c1.225 0 2.948.247 1.493 1.992l-42.641 51.132c-3.762 4.51-4.411 9.904-.05 13.467 4.004 3.272 10.63.121 15.921-4.613l30.255-27.064 1.058.685-17.194 20.302c-4.312 5.092-3.035 9.826.204 11.748 3.782 2.244 10.726.138 14.886-3.8l31.417-29.742c.973-.921 1.788-.203 1.182.56 0 0-11.382 13.967-17.425 21.574-1.818 2.29-2.062 6.049-.498 8.36 2.023 2.99 6.178 3.456 10.272 3.423l110.148-.872c3.93-.03 9.139-2.356 5.912-7.031-2.198-3.185-10.174-5.604-21.843-5.602-10.052.002-17.12 2.463-23.337 5.104l-57.068.622c-2.38.026-2.494-1.579-1.369-2.988l36.283-45.429c3.407-4.266 3.504-9.557-.064-12.384-3.112-2.467-9.176-1.923-14.81 2.925l-27.632 23.774c-.789.679-1.21-.036-.747-.623l16.013-20.29c2.26-2.865 1.411-6.979-1.823-9.209-2.282-1.573-8.328-1.392-11.884 1.757l-32.114 28.426c-.983.87-1.544.302-.996-.373l15.061-18.546c6.46-7.954 2.842-14.385-6.136-14.385h-21.076l34.23-41.72c2.902-3.536 3.942-4.737 7.22-5.576 2.803-.718 1.968-5.488-1.292-5.488zm-8.66 8.348c-11.868 14.938-23.792 29.828-36.096 44.437h-13.237c.666-.651 1.33-1.295 2.009-1.974L135.47 67.03c3.774-3.717 8.284-7.223 14.512-10.151zM14.753 108.42h65.563l-1.208 1.028c-13.546 11.673-46.8 18.47-65.64 7.904-4.607-3.28-2.685-8.75 1.285-8.932z"/><path d="m68.795 199.353 2.554 2.52c1.416 1.408-.352 3.513-.59 3.821-.529.683-1.702 1.997-1.902 2.562l2.275 2.264c.523-.622 1.08-1.368 1.511-1.92 1.431-1.825 2.673-3.022 2.173-5.238 1.764.76 3.128.297 4.492-1.085.89-.902 1.391-2.031 1.4-3.127.008-1.034-.462-1.988-1.425-2.938l-6.074-5.994-11.175 11.326 2.33 2.299zm1.916-1.942 2.912-2.951 2.753 2.716c.668.659.87.981.936 1.506.05.509-.194 1.035-.715 1.563-.536.544-1.105.841-1.615.798-.479-.043-.85-.257-1.518-.916z" aria-label="R"/><g color="#000"><path d="M-27.576 286.64a4.27 4.27 0 0 0-1.31-1.722v-.001a3.898 3.898 0 0 0-1.897-.825h-.011l-.005.002c-.677-.087-1.365.015-2.057.306-1.068.45-1.81 1.178-2.211 2.162l-.008.004-.005.016c-.395.997-.356 2.057.105 3.153.25.594.57 1.086.963 1.473.398.388.955.733 1.67 1.04l.002-.001.112.047.638-1.503-.113-.047c-.521-.219-.913-.453-1.173-.694a2.66 2.66 0 0 1-.62-.916 2.577 2.577 0 0 1-.203-1.287c.045-.43.194-.806.449-1.137a2.476 2.476 0 0 1 1.034-.772c.627-.264 1.23-.27 1.838-.018.61.255 1.038.688 1.305 1.323.316.751.29 1.551-.089 2.429l-.048.111 1.472.65.052-.104a4.387 4.387 0 0 0 .454-1.845 4.394 4.394 0 0 0-.337-1.802l.009-.004z" style="font-feature-settings:normal;font-variant-alternates:normal;font-variant-caps:normal;font-variant-east-asian:normal;font-variant-ligatures:normal;font-variant-numeric:normal;font-variant-position:normal;font-variation-settings:normal;inline-size:0;isolation:auto;mix-blend-mode:normal;shape-margin:0;shape-padding:0;text-decoration-color:#000;text-decoration-line:none;text-decoration-style:solid;text-indent:0;text-orientation:mixed;text-transform:none;white-space:normal" transform="translate(108.852 -417.159) scale(2.004)"/><path fill-rule="evenodd" d="M-25.94 294.88a4.04 4.04 0 0 0-4.029 4.028 4.04 4.04 0 0 0 4.029 4.029 4.04 4.04 0 0 0 4.028-4.029 4.04 4.04 0 0 0-4.028-4.028zm0 1.653c1.322 0 2.375 1.053 2.375 2.375s-1.053 2.376-2.375 2.376-2.375-1.054-2.375-2.376 1.053-2.375 2.375-2.375zM-.228 315.96a4.04 4.04 0 0 0-4.029 4.028 4.04 4.04 0 0 0 4.03 4.029 4.04 4.04 0 0 0 4.028-4.029 4.04 4.04 0 0 0-4.029-4.028zm0 1.653c1.322 0 2.376 1.053 2.376 2.375s-1.054 2.376-2.376 2.376c-1.321 0-2.375-1.054-2.375-2.376s1.054-2.375 2.375-2.375z" style="font-feature-settings:normal;font-variant-alternates:normal;font-variant-caps:normal;font-variant-east-asian:normal;font-variant-ligatures:normal;font-variant-numeric:normal;font-variant-position:normal;font-variation-settings:normal;inline-size:0;isolation:auto;mix-blend-mode:normal;paint-order:markers stroke fill;shape-margin:0;shape-padding:0;text-decoration-color:#000;text-decoration-line:none;text-decoration-style:solid;text-indent:0;text-orientation:mixed;text-transform:none;white-space:normal" transform="translate(108.852 -417.159) scale(2.004)"/></g><path d="m127.143 231.353 3.52.696c1.957.395 1.641 3.126 1.612 3.514-.064.861-.32 2.604-.175 3.185l3.146.636c.094-.807.147-1.736.204-2.434.188-2.312.564-3.995-1.074-5.568 1.891-.339 2.774-1.477 3.151-3.382.245-1.242.041-2.461-.556-3.38-.562-.868-1.48-1.405-2.807-1.667l-8.371-1.655-3.085 15.609 3.211.634zm.529-2.676.804-4.068 3.793.75c.92.182 1.268.34 1.611.741.322.397.41.97.265 1.699-.148.749-.46 1.31-.908 1.555-.423.228-.851.255-1.772.073z" aria-label="R"/><path d="m149.385 223.9 2.673-.02 6.659 15.98-3.467.024-1.328-3.14-6.14.046-1.234 3.159-3.455.025zm1.38 5.24-1.832 4.737 3.796-.028zm18.985 9.23-2.363-13.006-4.644.843-.481-2.648 12.44-2.26.48 2.649-4.634.842 2.362 13.005zm12.64-19.5 3.24-1.09 5.074 15.08-3.238 1.09z"/><path fill-rule="evenodd" d="M46.655 313.52a4.04 4.04 0 0 0-4.029 4.028 4.04 4.04 0 0 0 4.029 4.029 4.04 4.04 0 0 0 4.028-4.029 4.04 4.04 0 0 0-4.028-4.028zm0 1.653c1.322 0 2.375 1.053 2.375 2.375s-1.053 2.376-2.375 2.376-2.375-1.054-2.375-2.376 1.053-2.375 2.375-2.375z" color="#000" style="font-feature-settings:normal;font-variant-alternates:normal;font-variant-caps:normal;font-variant-east-asian:normal;font-variant-ligatures:normal;font-variant-numeric:normal;font-variant-position:normal;font-variation-settings:normal;inline-size:0;isolation:auto;mix-blend-mode:normal;paint-order:markers stroke fill;shape-margin:0;shape-padding:0;text-decoration-color:#000;text-decoration-line:none;text-decoration-style:solid;text-indent:0;text-orientation:mixed;text-transform:none;white-space:normal" transform="translate(108.852 -417.159) scale(2.004)"/><path d="m220.783 216.646-10.054-12.33 2.423-1.976 11.76 4.12-6.714-8.235 2.313-1.886 10.055 12.33-2.498 2.038-11.528-3.988 6.557 8.041z"/></svg>