<svg enable-background="new 0 0 294.6 296.1" height="20" viewBox="0 0 294.6 296.1" width="20" xmlns="http://www.w3.org/2000/svg"><path d="m174.5 139.2c0-1 0-2 0-2.9z"/><path d="m174.5 136c0-.3 0-.6 0-.9z"/><path d="m174.5 134.4c0-.2 0-.4 0-.5z"/><path d="m118.6 137.8v2.7c0-1 0-1.9 0-2.7z"/><path d="m118.5 133.5v2.5c0-1.3 0-2.1 0-2.5z"/><path d="m118.6 155.6v2.7c0-.8 0-1.7 0-2.7z"/><path d="m118.5 160.1v2.5c0-.4 0-1.2 0-2.5z"/><path d="m174.5 156.8v2.9c0-.9 0-1.8 0-2.9z"/><path d="m174.5 160.1v.9c0-.3 0-.6 0-.9z"/><path d="m174.5 161.6v.5c0-.1 0-.3 0-.5z"/><path d="m186.2 141.4c-.4-54.2-5.3-115.2-13.5-134.3l-26.2-6.4-26.2 6.4c-8.2 19.1-13.1 80-13.5 134.2l-11.4.9v11.5l11.4.9c.4 54.2 5.3 115.2 13.5 134.2l26.2 6.4 26.2-6.4c8.2-19.1 13.1-80 13.5-134.3l11.1-.9v-11.5zm-57.8 132.1c-7.4-31.8-8.9-84.3-9.5-118.3l18.6 1.4 3.3 116.9zm9.1-134-18.6 1.4c.6-34 2.1-86.5 9.5-118.3h12.3zm27.1 134h-12.6l3.3-116.9 18.8-1.4c-.6 34-2 86.5-9.5 118.3zm-9.3-134-3.3-116.9h12.6c7.4 31.8 8.9 84.3 9.5 118.3z"/></svg>