<svg version="1.2" xmlns="http://www.w3.org/2000/svg" overflow="visible" viewBox="0 0 20 20" width="30" height="18">
	<title>subaru</title>
	
	<path class="s0" d="m12 0c3 0 6.2 0.6 8.8 2.2 1.7 1.1 3.2 2.7 3.2 4.8 0 2.5-2.1 4.2-4.1 5.3-2.4 1.2-5.2 1.7-7.9 1.7-3 0-6.2-0.6-8.8-2.2-1.6-1.1-3.2-2.7-3.2-4.8 0-2.5 2.1-4.2 4.1-5.3 2.4-1.2 5.2-1.7 7.9-1.7zm0 0.7c-2.8 0-5.8 0.6-8.3 2-1.5 0.9-3 2.4-3 4.3 0 2.2 2.1 3.8 3.9 4.7 2.2 1.1 4.9 1.5 7.4 1.5 2.8 0 5.8-0.5 8.2-2 1.5-0.9 3-2.3 3-4.2 0-2.3-2-3.8-3.8-4.7-2.3-1.1-4.9-1.6-7.4-1.6zm-10.6 4.7l4.6-0.8 1.4-3 1.4 3 4.6 0.8-4.6 0.8-1.4 3-1.4-3zm10.1 2.3l2.1-0.4 0.6-1.3 0.6 1.3 2 0.4-2 0.3-0.6 1.4-0.6-1.4zm4.2-3.6l2-0.3 0.6-1.4 0.6 1.4 2 0.3-2 0.4-0.6 1.3-0.6-1.3zm-2.2 6.4l2-0.3 0.6-1.4 0.7 1.4 2 0.3-2 0.4-0.7 1.3-0.6-1.3zm-6.2 0.5l2-0.4 0.7-1.4 0.6 1.4 2 0.4-2 0.3-0.6 1.4-0.7-1.4zm10.2-3.3l2.1-0.4 0.6-1.4 0.6 1.4 2 0.4-2 0.3-0.6 1.4-0.6-1.4z"/>
</svg>