<svg version="1.2" xmlns="http://www.w3.org/2000/svg" viewBox="0 0 24 24" width="100" height="100">
	<title>toyota</title>
	
	<path class="s0" d="m12 0.2c-6.6 0-12 3.5-12 7.8 0 4.3 5.4 7.8 12 7.8 6.6 0 12-3.5 12-7.8 0-4.3-5.4-7.8-12-7.8zm0 12.2c-1 0-1.8-1.9-1.8-4.4q0.4 0.1 0.9 0.1 0.4 0 0.9 0 0.5 0 0.9 0 0.5 0 0.9-0.1c0 2.5-0.8 4.4-1.8 4.4zm-1.7-6.3c0.2-1.7 0.9-2.9 1.7-2.9 0.8 0 1.4 1.2 1.7 2.9q-0.4 0-0.8 0.1-0.5 0-0.9 0-0.4 0-0.9 0-0.4-0.1-0.8-0.1zm1.7-4.7c-1.3 0-2.4 1.9-2.8 4.6-2.4-0.4-4.1-1.3-4.1-2.3 0-1.3 3.1-2.4 6.9-2.4 3.8 0 6.9 1.1 6.9 2.4 0 1-1.7 1.9-4.1 2.3-0.4-2.7-1.5-4.6-2.8-4.6zm-10.3 6.3c0-1.3 0.5-2.5 1.4-3.6q0 0.1 0 0.2c0 1.7 2.5 3.1 5.9 3.6q0 0.2 0 0.4c0 3.1 0.9 5.7 2.1 6.6-5.3-0.3-9.4-3.4-9.4-7.2zm11.2 7.2c1.2-0.9 2.1-3.5 2.1-6.6q0-0.2 0-0.4c3.4-0.5 5.9-1.9 5.9-3.6q0-0.1 0-0.2c0.9 1.1 1.4 2.3 1.4 3.6 0 3.8-4.1 6.9-9.4 7.2z"/>
</svg>